<svg width="33" height="32" viewBox="0 0 33 32" fill="none" xmlns="http://www.w3.org/2000/svg">
<path d="M7.83725 15.5249C7.45925 16.0098 7.25 16.6039 7.25 17.2221C7.25 18.2028 7.81475 19.131 8.72375 19.6487C8.95776 19.7819 9.2242 19.8521 9.4955 19.8518H14.891L14.756 22.5362C14.7245 23.1849 14.9607 23.8009 15.4197 24.2705C15.645 24.5019 15.9168 24.6861 16.2182 24.8116C16.5197 24.937 16.8445 25.0012 17.1725 25C18.3425 25 19.3775 24.2355 19.688 23.1412L21.6208 16.3484H24.53C24.9283 16.3484 25.25 16.036 25.25 15.6494V7.69894C25.25 7.31234 24.9283 7 24.53 7L11.0007 7C10.7937 7 10.5912 7.03932 10.4045 7.11795C9.3335 7.56134 8.64275 8.57699 8.64275 9.70404C8.64275 9.97925 8.68325 10.2501 8.76425 10.5122C8.38625 10.9971 8.177 11.5912 8.177 12.2093C8.177 12.4845 8.2175 12.7554 8.2985 13.0175C7.9205 13.5024 7.71125 14.0965 7.71125 14.7146C7.71575 14.9898 7.75625 15.2628 7.83725 15.5249ZM23.63 8.57262V14.7757H21.8075V8.57262H23.63ZM9.311 16.2828L9.80375 15.8678L9.491 15.3131C9.38796 15.1303 9.33454 14.9251 9.33575 14.7168C9.33575 14.3564 9.49775 14.0135 9.77675 13.7776L10.2695 13.3626L9.95675 12.8078C9.85371 12.625 9.80029 12.4198 9.8015 12.2115C9.8015 11.8511 9.9635 11.5082 10.2425 11.2723L10.7352 10.8573L10.4225 10.3025C10.3195 10.1198 10.266 9.91455 10.2672 9.70622C10.2672 9.21696 10.5642 8.77575 11.0232 8.57481L20.3675 8.57481V14.8456L18.1287 22.7197C18.071 22.9215 17.9471 23.0996 17.7758 23.2269C17.6044 23.3542 17.395 23.4238 17.1792 23.4252C17.0082 23.4252 16.8395 23.3771 16.7045 23.2788C16.4817 23.1172 16.3625 22.8726 16.376 22.6127L16.592 18.2792L9.518 18.2792C9.1175 18.0411 8.87 17.6392 8.87 17.2221C8.87 16.8617 9.032 16.5209 9.311 16.2828Z" fill="#FF4949"/>
</svg>
