<svg width="24" height="22" viewBox="0 0 24 22" fill="none" xmlns="http://www.w3.org/2000/svg">
<path d="M11.3305 4.59703L11.9989 5.19777L12.6673 4.59703C13.6854 3.68204 15.0919 3.04504 16.5016 3.00239C17.8806 2.96068 19.2167 3.45623 20.2758 4.81949C21.3185 6.17618 21.3003 8.73339 19.7853 11.6686C18.3387 14.4377 15.6796 17.2043 11.9989 18.9047C8.31675 17.2036 5.66049 14.4368 4.23891 11.6721L4.23894 11.6721L4.23521 11.665C2.69715 8.73197 2.68017 6.17524 3.72194 4.81961C4.78097 3.45626 6.11719 2.96067 7.49615 3.00239C8.90584 3.04504 10.3124 3.68204 11.3305 4.59703Z" stroke="#FFA011" stroke-width="2"/>
</svg>
