<svg width="33" height="32" viewBox="0 0 33 32" fill="none" xmlns="http://www.w3.org/2000/svg">
<path d="M25.1628 16.4751C25.5408 15.9902 25.75 15.3961 25.75 14.7779C25.75 13.7972 25.1853 12.869 24.2763 12.3513C24.0422 12.2181 23.7758 12.1479 23.5045 12.1482H18.109L18.244 9.46379C18.2755 8.81509 18.0393 8.19914 17.5803 7.72954C17.355 7.49807 17.0832 7.31391 16.7818 7.18844C16.4803 7.06296 16.1555 6.99883 15.8275 7.00002C14.6575 7.00002 13.6225 7.76449 13.312 8.85877L11.3792 15.6516H8.47C8.07175 15.6516 7.75 15.964 7.75 16.3506V24.3011C7.75 24.6877 8.07175 25 8.47 25H21.9993C22.2063 25 22.4088 24.9607 22.5955 24.8821C23.6665 24.4387 24.3573 23.423 24.3573 22.296C24.3573 22.0208 24.3168 21.7499 24.2358 21.4878C24.6138 21.0029 24.823 20.4088 24.823 19.7907C24.823 19.5155 24.7825 19.2446 24.7015 18.9825C25.0795 18.4976 25.2888 17.9035 25.2888 17.2854C25.2843 17.0102 25.2438 16.7372 25.1628 16.4751ZM9.37 23.4274V17.2243H11.1925V23.4274H9.37ZM23.689 15.7172L23.1963 16.1322L23.509 16.6869C23.612 16.8697 23.6655 17.0749 23.6643 17.2832C23.6643 17.6436 23.5023 17.9865 23.2233 18.2224L22.7305 18.6374L23.0433 19.1922C23.1463 19.375 23.1997 19.5802 23.1985 19.7885C23.1985 20.1489 23.0365 20.4918 22.7575 20.7277L22.2648 21.1427L22.5775 21.6975C22.6805 21.8802 22.734 22.0854 22.7328 22.2938C22.7328 22.783 22.4358 23.2242 21.9768 23.4252H12.6325V17.1544L14.8713 9.28032C14.929 9.0785 15.0529 8.90045 15.2242 8.77314C15.3956 8.64583 15.605 8.57621 15.8208 8.57482C15.9918 8.57482 16.1605 8.62288 16.2955 8.72116C16.5183 8.8828 16.6375 9.12743 16.624 9.38735L16.408 13.7208H23.482C23.8825 13.9589 24.13 14.3608 24.13 14.7779C24.13 15.1383 23.968 15.4791 23.689 15.7172Z" fill="#6FB842"/>
</svg>
