<svg width="32" height="32" viewBox="0 0 32 32" fill="none" xmlns="http://www.w3.org/2000/svg">
<path d="M10.5 22.393V23.1612L11.2024 22.8502L16 20.7261L20.7976 22.8502L21.5 23.1612V22.393V9.05926V8.55926H21H16H11H10.5V9.05926V22.393ZM9.72512 24.4075L9.72445 24.4071C9.57376 24.3081 9.5 24.1828 9.5 23.9632V9.05926C9.5 8.6221 9.64596 8.26237 9.94668 7.95275C10.2461 7.64444 10.5883 7.5 11 7.5H21C21.4115 7.5 21.7541 7.64434 22.0542 7.95261C22.3542 8.26214 22.5 8.62191 22.5 9.05926V23.9632C22.5 24.1828 22.4262 24.3081 22.2755 24.4071L22.2749 24.4075C22.1152 24.5127 21.974 24.5275 21.7955 24.4554L16.2019 21.987L16 21.898L15.7981 21.987L10.2045 24.4554C10.026 24.5275 9.88484 24.5127 9.72512 24.4075Z" stroke="#C8C8C8"/>
</svg>
